inDegrees=no
num_controls=7
num_derivatives=13
num_iterations=133
num_multipliers=7
num_parameters=0
num_slacks=7
num_states=26
objective=0.446172
objective_accelerations=0.052830
objective_balance=0.003040
objective_effort=0.020475
objective_height=0.365455
objective_ligament=0.004373
solver_duration=1994.732874
status=Solve_Succeeded
success=true
DataType=double
version=3
OpenSimVersion=4.5
endheader
time	/jointset/ground_pelvis/pelvis_tilt/value	/jointset/ground_pelvis/pelvis_tx/value	/jointset/ground_pelvis/pelvis_ty/value	/jointset/hip_l/hip_flexion_l/value	/jointset/hip_l/hip_adduction_l/value	/jointset/hip_l/hip_rotation_l/value	/jointset/back/lumbar_extension/value	/jointset/patellofemoral_l/patellar_flexion_l/value	/jointset/knee_l/knee_flexion_l/value	/jointset/knee_l/knee_adduction_l/value	/jointset/knee_l/knee_rotation_l/value	/jointset/ankle_l/ankle_angle_l/value	/jointset/subtalar_l/subtalar_angle_l/value	/jointset/ground_pelvis/pelvis_tilt/speed	/jointset/ground_pelvis/pelvis_tx/speed	/jointset/ground_pelvis/pelvis_ty/speed	/jointset/hip_l/hip_flexion_l/speed	/jointset/hip_l/hip_adduction_l/speed	/jointset/hip_l/hip_rotation_l/speed	/jointset/back/lumbar_extension/speed	/jointset/patellofemoral_l/patellar_flexion_l/speed	/jointset/knee_l/knee_flexion_l/speed	/jointset/knee_l/knee_adduction_l/speed	/jointset/knee_l/knee_rotation_l/speed	/jointset/ankle_l/ankle_angle_l/speed	/jointset/subtalar_l/subtalar_angle_l/speed	/forceset/tau_hip_flexion_l	/forceset/tau_hip_adduction_l	/forceset/tau_hip_rotation_l	/forceset/tau_knee_flexion_l	/forceset/tau_ankle_angle_l	/forceset/tau_subtalar_angle_l	/forceset/tau_lumbar_extension	lambda_cid13_p0	lambda_cid13_p1	lambda_cid13_p2	lambda_cid13_p3	lambda_cid13_p4	lambda_cid13_p5	lambda_cid14_p0	/jointset/ground_pelvis/pelvis_tilt/accel	/jointset/ground_pelvis/pelvis_tx/accel	/jointset/ground_pelvis/pelvis_ty/accel	/jointset/hip_l/hip_flexion_l/accel	/jointset/hip_l/hip_adduction_l/accel	/jointset/hip_l/hip_rotation_l/accel	/jointset/back/lumbar_extension/accel	/jointset/patellofemoral_l/patellar_flexion_l/accel	/jointset/knee_l/knee_flexion_l/accel	/jointset/knee_l/knee_adduction_l/accel	/jointset/knee_l/knee_rotation_l/accel	/jointset/ankle_l/ankle_angle_l/accel	/jointset/subtalar_l/subtalar_angle_l/accel	gamma_cid13_p0	gamma_cid13_p1	gamma_cid13_p2	gamma_cid13_p3	gamma_cid13_p4	gamma_cid13_p5	gamma_cid14_p0
1.5	-0.3199681850205759	-0.001595051426287284	0.7749542740497535	1.008236100496338	-0.4379926351341257	-0.2124843529895329	-0.2207230811928195	0.7841310683867512	0.7841310683869033	-0.1458980265564995	-0.1404768291486287	0.1544144654776679	-0.008046466426558329	0.5577326656183481	0.2284229292381045	0.4789121796191644	-2.198103866111845	0.2227026812779215	-0.7047064290350276	0.3241120351779598	-1.960635453107034	-1.960635453106821	-0.09024867546660582	0.147898388483686	-0.4745665623360532	0.008862950935650243	-0.1524400429385379	0.0278926754381694	-0.006264466722814877	-0.2097977316629621	0.02574897877165405	0.04079134282950108	0.15341049497359	-23.94826870432405	-16.72733539593602	5.991556797593471	-5.125125996813715	-522.490446766653	-65.63762525826372	-25.83575957085831	0.523777039664901	0.5789244435039181	-0.4744655785659731	-1.113385904949634	0.6733594883262483	-0.1111559916277405	1.340218576801586	-1.2743577186832	-1.274357718683191	0.1058080013133752	0.2087897051988484	-0.4820894266416132	0.4877239243924104	3.366760452150495e-07	1.154416390298677e-06	-1.328854190700201e-06	1.548617442042817e-07	4.582731836134938e-07	3.582349110211095e-07	3.288133459638071e-07
1.51	-0.3143647397374836	0.0007178637122645266	0.7797187179040346	0.9862010909268099	-0.4357332540478335	-0.2195361676668686	-0.2174160662627415	0.764463291918506	0.7644632919185413	-0.1467976038747507	-0.1389889066174536	0.1496449636751075	-0.007935006798278613	0.562877865956919	0.2341267839906894	0.4738756191254794	-2.20858510875195	0.2291517269878775	-0.7055621568389968	0.3372522259297154	-1.972642841402915	-1.972642841402864	-0.08965885146496164	0.1496657626012185	-0.4792600628760561	0.01343477013147758	-0.1473612485829266	0.02705245523929813	-0.005906116249218834	-0.2066973939209845	0.02605445250729903	0.04002564121870188	0.1491952506481887	-23.67437842199773	-16.43282268025813	5.933266579631277	-4.965479230815115	-519.0403926972914	-65.64951145086795	-26.71162049703815	0.4981234808916948	0.5611524242280548	-0.5332995725397888	-0.9685352193736226	0.6274347402615341	-0.05832256568459233	1.295110588171925	-1.122446128765801	-1.122446128790003	0.03691120304417159	0.1573770224899623	-0.4518804164038941	0.4427365064670423	3.418322211097845e-07	1.212923413172178e-06	-1.326613725526479e-06	1.635505579731386e-07	4.776584660663219e-07	4.026874956865752e-07	3.316246220066114e-07
1.52	-0.3087121960610177	0.003086824684960621	0.7844297864958248	0.9640706605757147	-0.4334100309788553	-0.2265936479004245	-0.2139788111723841	0.7446837382185578	0.7446837382184737	-0.147691014632296	-0.13748397719361	0.1448307468574025	-0.007777663860182763	0.5675523442930303	0.2396320960669613	0.4682371271209966	-2.217188022425359	0.2354710778150837	-0.7058395402790884	0.3501600672338471	-1.982990899447802	-1.982990899447912	-0.08901536332514741	0.1512997670171312	-0.4835095653650294	0.0180396128988713	-0.1422824542273129	0.02621223504042836	-0.005547765775631956	-0.2035970561790053	0.0263599262429448	0.03925993960790508	0.1449800063227889	-23.40313281398318	-16.14135700319778	5.879472381970988	-4.839354804956212	-515.6491325142061	-65.70725536180625	-27.58827190584389	0.4296326391729544	0.5392159082413157	-0.5948518807255425	-0.7377201116100766	0.6474205117762946	0.00451288114782273	1.293748687276807	-0.9424916684841775	-0.9424916684842073	0.1165408289473797	0.1821157648748645	-0.3932898164356871	0.4943286387056863	3.442933705244802e-07	1.306809817083189e-06	-1.28500749310994e-06	1.808711584576433e-07	4.936281942668691e-07	4.485680006429399e-07	3.334883972148033e-07
1.53	-0.3030152539806337	0.005509834644625924	0.7890815616706487	0.9418633828912136	-0.4310243539892672	-0.2336513950785492	-0.2104138251776689	0.7248089326302835	0.7248089326302343	-0.1485776990969385	-0.1359636210323646	0.1399762865577762	-0.007574177646899496	0.5717506297985995	0.2449349366616422	0.4620249945444386	-2.22395628240811	0.2416350601070634	-0.7056052505574085	0.3627888450615598	-1.991691060825704	-1.991691060825865	-0.088327152794569	0.1527597412613937	-0.4873007770460897	0.02265965263193982	-0.1370390801426463	0.02498112673857321	-0.005226917204463355	-0.2009327239085458	0.02709740187489073	0.03845031996407208	0.1406355749866031	-23.00784453174014	-15.85169992554499	5.825009873957873	-4.772644994366573	-512.4467735640143	-65.8023161945883	-28.46622584772029	0.4021102807989022	0.5206185635268398	-0.6482284259117547	-0.5996875669572584	0.5964688027775755	0.04889510269642364	1.240199333368342	-0.7919717261030187	-0.7919717261106625	0.04431491594808941	0.1259247813506527	-0.3597282115447505	0.4460391663576659	3.438910543041343e-07	1.438286813346553e-06	-1.201575132997909e-06	2.073630323275237e-07	5.059688960743678e-07	4.959656709083847e-07	3.343454527862192e-07
1.54	-0.2972788922902834	0.007984833095927086	0.7936684486237486	0.9195977608818157	-0.4285779208337852	-0.2407035977424536	-0.2067240000041064	0.7048554867574984	0.7048554867574832	-0.1494576307061088	-0.1344290678232465	0.1350863758678186	-0.007324451531135463	0.5754362662861681	0.2500297943941329	0.4552594827762521	-2.228856887404847	0.2476223109937934	-0.7047306374349938	0.375127903003267	-1.99871895635	-1.998718956350211	-0.08766479223058914	0.1541391765916044	-0.4905996434312918	0.02728759339501811	-0.131795706057978	0.02375001843671912	-0.004906068633296689	-0.198268391638085	0.02783487750683741	0.03764070032024086	0.1362911436504184	-22.61342275083271	-15.56511265061199	5.774717380598068	-4.743277746749651	-509.2762866460635	-65.9385996656378	-29.346629479505	0.3271028355728305	0.4976193358032716	-0.7055277190512522	-0.3641891144074821	0.6120742307263702	0.132577561294802	1.235804710075712	-0.6080384977629952	-0.6080384977629945	0.1113708356276683	0.1660079820644866	-0.2948207572640502	0.4959088447076418	3.25478343631792e-07	1.565042958946008e-06	-1.04792542711875e-06	2.463606029801354e-07	4.816504806313296e-07	5.234581369533287e-07	3.262041015691615e-07
1.55	-0.2915083244655757	0.01050967177629178	0.7981849536648384	0.897292710536794	-0.4260724491399142	-0.247744598086061	-0.2029122358168813	0.6848404274700389	0.6848404274700535	-0.1503303885112298	-0.1328816164704422	0.1301660733700793	-0.007028240099688335	0.5785899610490475	0.2548952296155735	0.4479563143882107	-2.231836360669713	0.2534373737441402	-0.7033680531431362	0.3871646547376916	-2.004005928168309	-2.004005928168392	-0.08689110280696384	0.1553362857179608	-0.4933775380680749	0.03195214713301173	-0.1266050261028981	0.02242925342125264	-0.004600264336328473	-0.1955867323283954	0.0283868809801499	0.03675288971039478	0.1319616989303479	-22.29270469843185	-15.23030431800425	5.715185534586594	-4.588382141679159	-506.2648259306143	-66.0258146012382	-30.22698369257142	0.2963863172832073	0.4746646932483475	-0.755417432949278	-0.217316005973369	0.5608993966900577	0.1535779077755747	1.178568449510109	-0.446040060270177	-0.4460400602508678	0.05997541622319315	0.09416903508775733	-0.2567160810482657	0.4511468864220801	2.863145263082378e-07	1.686359863563133e-06	-8.133731272035546e-07	2.99766911230241e-07	4.150943866170225e-07	5.280163459616102e-07	3.076950207914717e-07
1.56	-0.2857088429891113	0.01308189662445763	0.8026258858151942	0.8749673675444348	-0.4235098913986391	-0.2547688767778207	-0.1989819125034348	0.6647810957571152	0.664781095757161	-0.1511954879380167	-0.1313226726949413	0.1252205034731398	-0.006685499481245861	0.581218996637435	0.2595070279543651	0.440144904629427	-2.232915416872469	0.2590395204745355	-0.7013863070655046	0.3988397282474881	-2.007573441442829	-2.007573441442783	-0.08613311656360824	0.1564376611309791	-0.4956531232713706	0.03659343079408021	-0.1214143461478119	0.02110848840578966	-0.00429446003935815	-0.1929050730187038	0.02893888445346392	0.03586507910055376	0.1276322542102813	-21.97839852979586	-14.89735872174662	5.659361344613821	-4.448240333366271	-503.3612561156357	-66.15932101840718	-31.09268623071407	0.2221710006744743	0.4468919592734879	-0.807175993199705	0.01589429801470245	0.56949102673611	0.2564099184496026	1.163469065150099	-0.264146789005078	-0.2641467890050757	0.1082301995737302	0.1468612393968856	-0.1943588705665873	0.4912548293226117	2.525214035790414e-07	1.795849510978622e-06	-6.166612642745814e-07	3.435771720050388e-07	3.628452276243198e-07	5.317035260423099e-07	2.919311881269956e-07
1.57	-0.2798857899592908	0.01569890071307914	0.8069862193791386	0.8526409452218979	-0.420892360318115	-0.2617707519407659	-0.1949367199160039	0.6446949191355722	0.6446949191355575	-0.1520526672110193	-0.1297535477392429	0.1202547807291269	-0.006296363497694051	0.583298709699218	0.2638436013506588	0.4318437619347379	-2.232038626451888	0.264425813796648	-0.698887570481502	0.4101249212685747	-2.009360455417221	-2.009360455417305	-0.08530458955831947	0.157370191550023	-0.4974036945217113	0.04122751763802032	-0.1161945860910211	0.01979851634212365	-0.004026426242561887	-0.1902539746645318	0.02957518409707308	0.03475470237384172	0.1232575440550558	-21.65146551403703	-14.46505637611297	5.582091238327304	-4.246528058218861	-500.5614403973919	-66.10975202604568	-31.9379681406085	0.1869070238618404	0.4195905089599832	-0.8532286026025558	0.173106345901946	0.5168738964778404	0.2620259074104088	1.09996422506876	-0.09081908408842361	-0.09081908410784162	0.07018969205505056	0.06375528898342209	-0.1521810969280082	0.4482831769565673	2.25441649092792e-07	1.890555086892066e-06	-4.672499475783851e-07	3.753923734357018e-07	3.284797374086222e-07	5.343019199635326e-07	2.795989156040368e-07
